#!OML:ASF H:\Terrain\Patient Classification 1\Terrain2\Thursday\justin.ASF
:FULLY-SPECIFIED
:DEGREES
3368
root -1.18468 20.2078 12.1781 182.082 -5.70475 -171.319
lowerback 7.7739 2.49392 6.6561
upperback 3.01148 3.46262 3.3195
thorax -1.02103 1.57661 -0.577059
lowerneck -11.8567 -0.730425 -10.6393
upperneck 36.2173 -3.89366 5.0162
head 14.7909 -3.66525 3.04683
rclavicle -7.20594e-015 -1.98785e-014
rhumerus -31.0203 -3.23425 -82.6636
rradius 38.0202
rwrist -12.4975
rhand -22.3262 11.7213
rfingers 7.12502
rthumb 4.09379 -18.2192
lclavicle -7.20594e-015 -1.98785e-014
lhumerus -41.7944 9.82239 79.0509
lradius 30.1577
lwrist 2.0607
lhand -20.6526 17.857
lfingers 7.12502
lthumb 5.70975 47.7601
rfemur -5.99838 -12.1517 31.1444
rtibia 35.3907
rfoot -27.2554 -3.38234
rtoes 7.01674
lfemur -25.9005 9.10189 -15.6143
ltibia 46.8656
lfoot -20.012 -1.79196
ltoes 13.4907
3369
root -1.19983 20.2124 12.1322 182.11 -6.13371 -171.603
lowerback 7.66366 2.41377 6.28835
upperback 2.95448 3.3402 3.29646
thorax -1.04919 1.5198 -0.386022
lowerneck -11.6374 -0.801406 -10.922
upperneck 35.9833 -3.93986 5.11471
head 14.6451 -3.69699 3.13127
rclavicle -1.635e-014 2.22639e-014
rhumerus -31.2249 -3.19029 -82.4879
rradius 38.0194
rwrist -12.7217
rhand -22.1086 12.342
rfingers 7.12502
rthumb 4.30394 -17.5942
lclavicle -1.635e-014 2.22639e-014
lhumerus -41.9212 10.0405 78.9518
lradius 30.1516
lwrist 2.41961
lhand -20.9189 18.46
lfingers 7.12502
lthumb 5.45262 48.3698
rfemur -6.20223 -12.4611 30.7794
rtibia 36.0538
rfoot -27.0406 -3.21179
rtoes 8.00348
lfemur -25.7293 9.22289 -16.0034
ltibia 46.6903
lfoot -19.978 -2.416
ltoes 13.8813
3370
root -1.21075 20.226 12.0879 181.946 -6.56217 -171.652
lowerback 7.60271 2.42334 6.29238
upperback 3.07047 3.33949 3.20047
thorax -0.888962 1.52648 -0.481356
lowerneck -11.565 -0.992738 -11.0188
upperneck 35.8065 -4.22782 5.29883
head 14.5853 -3.78929 3.18143
rclavicle -3.93097e-014 -1.92821e-014
rhumerus -31.1367 -3.51578 -82.45
rradius 37.8521
rwrist -12.8354
rhand -22.2652 12.8213
rfingers 7.12502
rthumb 4.15263 -17.118
lclavicle -3.93097e-014 -1.92821e-014
lhumerus -41.6374 9.9745 78.762
lradius 29.9552
lwrist 2.74037
lhand -21.6776 17.4852
lfingers 7.12502
lthumb 4.72008 47.4126
rfemur -6.29195 -12.5446 30.6559
rtibia 36.8609
rfoot -26.9763 -2.78688
rtoes 10.0076
lfemur -25.439 9.28595 -16.0944
ltibia 46.5155
lfoot -19.9536 -2.69305
ltoes 13.2379
3371
root -1.22028 20.2297 12.0482 181.615 -6.90199 -171.698
lowerback 7.7461 2.50081 6.37675
upperback 3.21905 3.4462 3.04747
thorax -0.793032 1.58485 -0.695574
lowerneck -11.9941 -1.11869 -10.7913
upperneck 36.2069 -4.46125 5.24731
head 14.8939 -3.87429 3.08322
rclavicle -2.23633e-014 1.23246e-014
rhumerus -31.1424 -4.20589 -82.3996
rradius 37.7704
rwrist -12.7427
rhand -22.4265 11.9352
rfingers 7.12502
rthumb 3.99689 -18.007
lclavicle -2.23633e-014 1.23246e-014
lhumerus -41.2041 9.89736 78.5002
lradius 29.6202
lwrist 2.85586
lhand -21.893 17.0573
lfingers 7.12502
lthumb 4.51208 46.9893
rfemur -6.24243 -12.5037 30.4505
rtibia 37.8836
rfoot -26.9921 -1.73089
rtoes 13.3399
lfemur -24.8561 8.95806 -16.0811
ltibia 46.3295
lfoot -20.0094 -2.89951
ltoes 13.0484
3372
root -1.22683 20.2213 12.0131 181.224 -7.26223 -171.799
lowerback 8.22711 2.50674 6.24552
upperback 3.1814 3.49114 2.98778
thorax -1.1008 1.59909 -0.711554
lowerneck -12.1539 -1.10279 -10.5992
upperneck 36.5332 -4.46556 5.05947
head 15.0786 -3.89403 2.96886
rclavicle 2.40529e-014 -1.61016e-014
rhumerus -31.5039 -4.84415 -82.2031
rradius 37.7678
rwrist -12.4938
rhand -22.3076 11.4081
rfingers 7.12502
rthumb 4.11177 -18.532
lclavicle 2.40529e-014 -1.61016e-014
lhumerus -41.1139 10.0119 78.2407
lradius 29.2918
lwrist 2.72894
lhand -20.9956 18.0781
lfingers 7.12502
lthumb 5.37857 47.9898
rfemur -6.29517 -12.7718 30.2088
rtibia 39.1978
rfoot -26.6194 -1.34422
rtoes 13.6324
lfemur -24.2041 8.59562 -16.0984
ltibia 46.1397
lfoot -20.0501 -3.13723
ltoes 13.0674
3373
root -1.23442 20.2188 11.98 180.925 -7.69105 -171.851
lowerback 8.54799 2.46203 6.10524
upperback 3.18896 3.4451 2.99882
thorax -1.28267 1.56925 -0.633459
lowerneck -12.1172 -1.1046 -10.6714
upperneck 36.5869 -4.48324 5.11376
head 15.1016 -3.90886 3.00275
rclavicle -2.5345e-014 -3.18055e-015
rhumerus -31.6442 -5.24135 -81.9799
rradius 37.6424
rwrist -12.225
rhand -22.56 11.7142
rfingers 7.12502
rthumb 3.86803 -18.2304
lclavicle -2.5345e-014 -3.18055e-015
lhumerus -40.9005 10.478 77.9102
lradius 28.8237
lwrist 2.40724
lhand -20.9769 19.0871
lfingers 7.12502
lthumb 5.39668 48.9984
rfemur -6.74206 -13.4709 30.0381
rtibia 40.8516
rfoot -25.7381 -1.77433
rtoes 10.3911
lfemur -23.7356 8.52168 -16.1354
ltibia 45.9001
lfoot -19.8722 -3.44586
ltoes 13.7605
3374
root -1.24767 20.2141 11.9461 180.685 -8.08807 -171.93
lowerback 8.54445 2.4035 5.93107
upperback 3.38253 3.327 3.03818
thorax -1.09871 1.5104 -0.4812
lowerneck -12.2488 -1.137 -10.8617
upperneck 36.5786 -4.48445 5.24977
head 15.1385 -3.9067 3.09525
rclavicle -1.80397e-014 -5.1684e-014
rhumerus -31.3091 -5.27397 -81.799
rradius 37.3106
rwrist -12.1619
rhand -22.864 11.7975
rfingers 7.12502
rthumb 3.57448 -18.1523
lclavicle -1.80397e-014 -5.1684e-014
lhumerus -40.5461 11.2742 77.5004
lradius 28.508
lwrist 1.80696
lhand -21.6434 18.9759
lfingers 7.12502
lthumb 4.75308 48.9026
rfemur -7.38486 -14.1382 29.7474
rtibia 42.8257
rfoot -24.7628 -1.51676
rtoes 10.1277
lfemur -23.2088 8.40811 -16.2311
ltibia 45.5779
lfoot -19.8094 -3.8355
ltoes 14.7975
3375
root -1.26289 20.2095 11.9068 180.55 -8.46607 -172.411
lowerback 8.51731 2.38844 5.38699
upperback 3.4733 3.26561 2.93082
thorax -1.02089 1.48478 -0.282734
lowerneck -12.1619 -1.22388 -11.0442
upperneck 36.5638 -4.60149 5.3093
head 15.1327 -3.97391 3.13449
rclavicle -1.3418e-015 -1.15295e-014
rhumerus -31.1554 -5.39945 -81.605
rradius 36.9435
rwrist -12.1957
rhand -22.8851 11.7023
rfingers 7.12502
rthumb 3.55403 -18.2479
lclavicle -1.3418e-015 -1.15295e-014
lhumerus -40.4965 11.622 77.2408
lradius 28.564
lwrist 1.57933
lhand -22.4713 19.3035
lfingers 7.12502
lthumb 3.95363 49.2465
rfemur -8.24589 -14.9613 28.9657
rtibia 45.0595
rfoot -23.9456 -1.49593
rtoes 7.43501
lfemur -22.5945 8.1225 -16.7756
ltibia 45.1738
lfoot -19.9942 -4.08979
ltoes 14.7785
3376
root -1.27618 20.2235 11.8647 180.568 -8.8236 -172.892
lowerback 8.59144 2.42822 4.88566
upperback 3.32373 3.32256 2.74181
thorax -1.23621 1.51929 -0.212599
lowerneck -11.5599 -1.36944 -11.233
upperneck 36.2497 -4.91404 5.5401
head 14.8894 -4.10162 3.21698
rclavicle 5.26779e-014 4.85035e-014
rhumerus -31.4692 -5.80123 -81.4015
rradius 36.7321
rwrist -12.1259
rhand -22.8867 11.7976
rfingers 7.12502
rthumb 3.55254 -18.1525
lclavicle 5.26779e-014 4.85035e-014
lhumerus -40.6318 11.5463 77.0691
lradius 28.5183
lwrist 1.83515
lhand -23.3076 20.3364
lfingers 7.12502
lthumb 3.14603 50.293
rfemur -9.55658 -15.9192 28.2531
rtibia 47.4582
rfoot -22.7486 -2.30883
rtoes -1.0924
lfemur -22.1414 7.79269 -17.3212
ltibia 44.734
lfoot -19.9318 -4.30297
ltoes 16.1232
3377
root -1.28709 20.2388 11.829 180.41 -9.10241 -172.697
lowerback 8.71431 2.42525 4.96214
upperback 3.27058 3.3367 2.78273
thorax -1.35623 1.52311 -0.220758
lowerneck -11.1922 -1.40252 -11.2307
upperneck 35.8675 -4.97508 5.66734
head 14.633 -4.09047 3.26219
rclavicle -5.17337e-014 3.97569e-016
rhumerus -31.5699 -6.2397 -81.0932
rradius 36.5332
rwrist -11.0858
rhand -22.2518 11.1245
rfingers 7.12502
rthumb 4.16558 -18.8146
lclavicle -5.17337e-014 3.97569e-016
lhumerus -40.655 11.7258 76.8928
lradius 28.4488
lwrist 2.20078
lhand -22.6114 19.0743
lfingers 7.12502
lthumb 3.81837 49.0199
rfemur -10.8201 -16.4366 28.2715
rtibia 49.9204
rfoot -21.0259 -1.84934
rtoes -5.27722
lfemur -21.6444 7.71605 -17.0802
ltibia 44.3205
lfoot -19.746 -4.7123
ltoes 17.2974
3378
root -1.29713 20.2408 11.7968 180.084 -9.33371 -172.424
lowerback 8.76728 2.41224 5.0766
upperback 3.45166 3.29972 2.90164
thorax -1.19791 1.49905 -0.155463
lowerneck -11.6015 -1.34941 -11.0846
upperneck 36.1174 -4.80677 5.44861
head 14.8166 -4.02425 3.17104
rclavicle 6.95746e-015 -2.76311e-014
rhumerus -31.3009 -6.56498 -80.7929
rradius 36.3295
rwrist -10.1568
rhand -21.4055 9.98316
rfingers 7.12502
rthumb 4.98285 -19.9383
lclavicle 6.95746e-015 -2.76311e-014
lhumerus -40.4406 12.2103 76.7156
lradius 28.5304
lwrist 2.39665
lhand -21.6982 17.3212
lfingers 7.12502
lthumb 4.70017 47.2491
rfemur -11.8021 -16.5111 28.3047
rtibia 52.3879
rfoot -19.2562 -0.613972
rtoes -4.97113
lfemur -21.0483 7.82926 -16.7356
ltibia 43.9395
lfoot -19.6384 -5.29744
ltoes 18.5652
3379
root -1.31033 20.2398 11.7612 179.892 -9.53699 -172.676
lowerback 8.76528 2.44253 4.75942
upperback 3.5976 3.30228 2.83186
thorax -1.06093 1.50195 -0.048141
lowerneck -11.9944 -1.34005 -11.1139
upperneck 36.5492 -4.78894 5.3945
head 15.114 -4.04627 3.15601
rclavicle 3.05631e-014 3.02153e-014
rhumerus -31.1335 -6.66464 -80.6652
rradius 36.075
rwrist -10.3611
rhand -21.5184 10.1003
rfingers 7.12502
rthumb 4.87378 -19.8236
lclavicle 3.05631e-014 3.02153e-014
lhumerus -40.2431 12.6516 76.4657
lradius 28.6392
lwrist 2.27182
lhand -21.2982 17.6354
lfingers 7.12502
lthumb 5.08641 47.5543
rfemur -12.8722 -16.548 27.673
rtibia 54.8559
rfoot -17.3143 0.147138
rtoes -4.22722
lfemur -20.4777 7.66558 -17.0067
ltibia 43.541
lfoot -19.716 -5.48856
ltoes 19.723
3380
root -1.32801 20.2461 11.7219 179.761 -9.67142 -173.051
lowerback 8.91159 2.45413 4.37636
upperback 3.57322 3.3094 2.6787
thorax -1.18199 1.50767 -0.00150529
lowerneck -11.9945 -1.3387 -11.1759
upperneck 36.7022 -4.85932 5.50679
head 15.2012 -4.086 3.20365
rclavicle 1.31695e-014 8.15017e-015
rhumerus -31.1732 -7.02298 -80.3915
rradius 35.5858
rwrist -9.4228
rhand -21.2611 10.8073
rfingers 7.12502
rthumb 5.12223 -19.1108
lclavicle 1.31695e-014 8.15017e-015
lhumerus -40.4265 12.786 76.2112
lradius 28.9465
lwrist 2.35911
lhand -21.1484 18.0139
lfingers 7.12502
lthumb 5.23107 47.9294
rfemur -14.1055 -16.6931 26.8279
rtibia 57.35
rfoot -15.0039 0.929642
rtoes -4.36202
lfemur -19.8347 7.37995 -17.4197
ltibia 43.0906
lfoot -19.9412 -5.22687
ltoes 17.8749
3381
root -1.34306 20.2627 11.6794 179.618 -9.83513 -173.357
lowerback 9.06991 2.45838 4.05802
upperback 3.52944 3.31162 2.52676
thorax -1.3257 1.51096 0.0101268
lowerneck -11.7355 -1.33106 -11.0781
upperneck 36.5482 -4.86106 5.44585
head 15.0605 -4.07797 3.16092
rclavicle 4.34841e-014 2.88238e-014
rhumerus -31.2184 -7.58474 -80.0301
rradius 35.1703
rwrist -7.85642
rhand -20.2845 10.6436
rfingers 7.12502
rthumb 6.06515 -19.2496
lclavicle 4.34841e-014 2.88238e-014
lhumerus -40.6491 12.5761 76.0941
lradius 29.3259
lwrist 2.80061
lhand -21.7021 17.7029
lfingers 7.12502
lthumb 4.69642 47.6308
rfemur -15.4347 -16.8029 26.1006
rtibia 59.8471
rfoot -12.6668 1.74696
rtoes -4.51209
lfemur -19.2017 7.17028 -17.7482
ltibia 42.6271
lfoot -19.9713 -5.10732
ltoes 16.9465
3382
root -1.35112 20.273 11.6403 179.474 -10.0999 -173.714
lowerback 9.07048 2.51368 3.64427
upperback 3.62843 3.3481 2.37362
thorax -1.23918 1.53205 0.0810533
lowerneck -11.5469 -1.40809 -11.0013
upperneck 36.3546 -4.94497 5.37192
head 14.9293 -4.09753 3.10398
rclavicle 5.48894e-014 8.74653e-015
rhumerus -31.0824 -8.14828 -79.7167
rradius 35.0183
rwrist -6.52874
rhand -19.1617 9.24837
rfingers 7.12502
rthumb 7.14902 -20.6109
lclavicle 5.48894e-014 8.74653e-015
lhumerus -40.4643 12.1996 76.1731
lradius 29.5488
lwrist 3.29593
lhand -22.1815 17.7499
lfingers 7.12502
lthumb 4.23349 47.6876
rfemur -16.8218 -16.8134 25.3666
rtibia 62.4656
rfoot -10.8393 2.42317
rtoes -3.55696
lfemur -18.4414 6.89654 -18.143
ltibia 41.7204
lfoot -19.6812 -5.05414
ltoes 17.0168
